<svg width="1085" height="439" viewBox="0 0 1085 439" fill="none" xmlns="http://www.w3.org/2000/svg">
<path d="M437.639 219.492C437.639 340.519 339.478 439 218.827 439C98.1757 439 0 340.534 0 219.492C0 98.4507 98.1606 0 218.812 0C339.463 0 437.624 98.4659 437.624 219.492H437.639ZM33.5319 219.492C33.5319 321.979 116.643 405.349 218.812 405.349C320.981 405.349 404.092 321.979 404.092 219.492C404.092 117.006 320.981 33.6362 218.812 33.6362C116.643 33.6362 33.5319 117.021 33.5319 219.492Z" fill="#6EDE40"/>
<path d="M591.943 314.575C578.376 314.575 565.611 312.087 553.632 307.095C541.653 302.119 531.217 295.337 522.308 286.75C513.4 278.162 506.367 268.088 501.224 256.527C496.082 244.966 493.51 232.601 493.51 219.432C493.51 206.262 496.082 193.791 501.224 182.26C506.367 170.745 513.4 160.686 522.308 152.099C531.217 143.511 541.668 136.745 553.632 131.814C565.596 126.883 578.376 124.41 591.943 124.41C605.51 124.41 618.261 126.883 630.194 131.814C642.128 136.745 652.549 143.511 661.457 152.099C670.366 160.686 677.399 170.73 682.541 182.26C687.684 193.776 690.255 206.171 690.255 219.432C690.255 232.692 687.684 244.966 682.541 256.527C677.399 268.088 670.366 278.162 661.457 286.75C652.549 295.337 642.128 302.119 630.194 307.095C618.261 312.072 605.51 314.575 591.943 314.575ZM591.943 275.871C599.748 275.871 607.068 274.475 613.89 271.669C620.726 268.862 626.685 264.978 631.782 259.986C636.879 255.01 640.903 249.062 643.822 242.174C646.756 235.286 648.208 227.746 648.208 219.553C648.208 211.36 646.741 203.805 643.822 196.871C640.903 189.937 636.879 183.975 631.782 178.983C626.685 174.007 620.726 170.108 613.89 167.301C607.053 164.494 599.748 163.098 591.943 163.098C584.139 163.098 576.803 164.494 569.937 167.301C563.055 170.108 557.096 173.992 552.044 178.983C546.992 183.96 542.999 189.922 540.08 196.871C537.146 203.805 535.694 211.375 535.694 219.553C535.694 227.731 537.161 235.286 540.08 242.174C542.999 249.062 547.022 255.01 552.119 259.986C557.217 264.963 563.191 268.862 570.012 271.669C576.834 274.475 584.154 275.871 591.958 275.871H591.943Z" fill="#FFFFFF"/>
<path d="M878.318 237.228H895.515V311.222H878.318V237.228Z" fill="#FFFFFF"/>
<path d="M923.436 237.228L958.586 283.154V237.228H975.783V311.222H960.915L925.659 265.251H925.599V311.222H908.402V237.228H923.436Z" fill="#FFFFFF"/>
<path d="M1023.37 312.921C1017.91 312.921 1012.78 311.905 1007.98 309.872C1003.19 307.839 999.015 305.077 995.461 301.573C991.891 298.068 989.093 293.956 987.021 289.253C984.964 284.534 983.935 279.497 983.935 274.127C983.935 268.725 984.964 263.673 987.021 258.97C989.078 254.266 991.891 250.17 995.461 246.681C999.015 243.176 1003.2 240.43 1007.98 238.412C1012.78 236.394 1017.91 235.393 1023.37 235.393C1027.24 235.393 1031.17 235.984 1035.16 237.183C1039.16 238.381 1042.86 240.232 1046.25 242.736C1049.65 245.239 1052.57 248.44 1055.01 252.34C1057.44 256.239 1059.06 260.897 1059.86 266.298H1042.35C1041.7 263.582 1040.74 261.261 1039.5 259.364C1038.26 257.468 1036.78 255.905 1035.09 254.691C1033.39 253.478 1031.5 252.582 1029.42 252.021C1027.33 251.46 1025.15 251.171 1022.88 251.171C1019.92 251.171 1017.12 251.702 1014.47 252.749C1011.83 253.796 1009.51 255.329 1007.53 257.316C1005.55 259.319 1003.98 261.731 1002.84 264.553C1001.71 267.375 1001.13 270.591 1001.13 274.187C1001.13 277.844 1001.71 281.106 1002.84 283.958C1003.98 286.81 1005.55 289.207 1007.53 291.165C1009.51 293.122 1011.84 294.609 1014.47 295.625C1017.12 296.642 1019.92 297.142 1022.88 297.142C1025.17 297.142 1027.33 296.854 1029.39 296.293C1031.44 295.731 1033.33 294.851 1035.03 293.653C1036.72 292.454 1038.2 290.907 1039.44 288.995C1040.68 287.083 1041.64 284.777 1042.29 282.061H1059.86C1059.06 287.432 1057.46 292.06 1055.04 295.959C1052.62 299.858 1049.7 303.059 1046.31 305.563C1042.91 308.066 1039.22 309.917 1035.22 311.116C1031.23 312.314 1027.28 312.906 1023.37 312.906V312.921Z" fill="#FFFFFF"/>
<path d="M1075.71 312.8C1074.34 312.8 1073.1 312.572 1071.98 312.117C1070.86 311.662 1069.89 311.04 1069.1 310.266C1068.3 309.492 1067.7 308.582 1067.26 307.55C1066.82 306.519 1066.61 305.396 1066.61 304.197C1066.61 303.029 1066.82 301.937 1067.26 300.875C1067.7 299.828 1068.3 298.902 1069.1 298.129C1069.91 297.355 1070.86 296.733 1071.98 296.278C1073.1 295.822 1074.37 295.595 1075.77 295.595C1077.18 295.595 1078.45 295.822 1079.57 296.278C1080.69 296.733 1081.66 297.355 1082.47 298.129C1083.29 298.902 1083.91 299.828 1084.35 300.875C1084.79 301.922 1085 303.029 1085 304.197C1085 305.396 1084.79 306.503 1084.35 307.55C1083.91 308.582 1083.29 309.492 1082.47 310.266C1081.66 311.04 1080.69 311.662 1079.54 312.117C1078.41 312.572 1077.12 312.8 1075.71 312.8Z" fill="#FFFFFF"/>
<path d="M348.886 219.492C348.886 291.438 290.534 349.971 218.827 349.971C147.12 349.971 88.7529 291.438 88.7529 219.492C88.7529 147.547 147.105 89.0137 218.827 89.0137C290.549 89.0137 348.886 147.547 348.886 219.492ZM122.285 219.492C122.285 272.882 165.587 316.335 218.827 316.335C272.067 316.335 315.354 272.898 315.354 219.492C315.354 166.087 272.052 122.665 218.827 122.665C165.603 122.665 122.285 166.102 122.285 219.492Z" fill="#6EDE40"/>
<path d="M783.667 274.142H766.53L799.079 246.119C809.636 237.137 817.834 227.746 823.687 217.96C829.54 208.174 832.475 197.554 832.475 186.069C832.475 177.8 831.038 169.971 828.149 162.582C825.26 155.194 821.025 148.746 815.444 143.238C809.863 137.731 802.936 133.346 794.693 130.099C786.45 126.853 776.906 125.229 766.091 125.229C757.576 125.229 749.999 126.276 743.344 128.37C736.689 130.463 730.866 133.301 725.844 136.912C720.823 140.507 716.603 144.755 713.139 149.656C709.676 154.557 706.862 159.776 704.699 165.329C702.521 170.897 700.948 176.647 699.98 182.609C698.997 188.572 698.513 194.489 698.513 200.361H740.016C740.016 193.154 740.772 187.222 742.285 182.549C743.797 177.876 745.794 174.159 748.289 171.413C750.785 168.651 753.674 166.724 756.956 165.602C760.253 164.494 763.672 163.933 767.226 163.933C770.78 163.933 773.987 164.494 776.83 165.602C779.674 166.709 782.094 168.272 784.105 170.275C786.102 172.277 787.644 174.614 788.703 177.284C789.762 179.954 790.306 182.898 790.306 186.084C790.306 189.907 789.535 193.685 787.977 197.432C786.419 201.165 784.12 205.034 781.065 209.039C778.01 213.044 774.229 217.292 769.752 221.783C765.275 226.274 760.102 231.19 754.249 236.53L698.634 287.099V310.448H836.316V274.157H783.651L783.667 274.142Z" fill="#FFFFFF"/>
</svg>
